<svg width="375" height="812" viewBox="0 0 375 812" fill="none" xmlns="http://www.w3.org/2000/svg">
<g id="splash" clip-path="url(#clip0_2_45)">
<rect width="375" height="812" fill="#819EE5"/>
<g id="Rectangle 1" filter="url(#filter0_f_2_45)">
<rect y="209" width="375" height="410" fill="white"/>
</g>
<g id="Rectangle 2" filter="url(#filter1_f_2_45)">
<rect y="328" width="375" height="155" fill="white"/>
</g>
<g id="Clip path group">
<mask id="mask0_2_45" style="mask-type:luminance" maskUnits="userSpaceOnUse" x="69" y="290" width="232" height="232">
<g id="997bb5d8c4">
<path id="Vector" d="M69 290H300.354V521.354H69V290Z" fill="white"/>
</g>
</mask>
<g mask="url(#mask0_2_45)">
<g id="Group">
<g id="Clip path group_2">
<mask id="mask1_2_45" style="mask-type:luminance" maskUnits="userSpaceOnUse" x="69" y="290" width="232" height="232">
<g id="2fce99fee9">
<path id="Vector_2" d="M184.677 521.354C153.792 521.354 124.714 509.333 102.891 487.464C81.0208 465.641 69 436.562 69 405.677C69 374.792 81.0208 345.714 102.891 323.891C124.714 302.021 153.792 290 184.677 290C215.562 290 244.641 302.021 266.464 323.891C288.333 345.76 300.354 374.792 300.354 405.677C300.354 436.562 288.333 465.641 266.464 487.464C244.641 509.333 215.562 521.354 184.677 521.354ZM184.677 296.938C155.641 296.938 128.318 308.266 107.792 328.792C87.2656 349.318 75.9375 376.641 75.9375 405.677C75.9375 434.714 87.2656 462.036 107.792 482.562C128.318 503.089 155.641 514.417 184.677 514.417C213.714 514.417 241.036 503.089 261.562 482.562C282.089 462.036 293.417 434.714 293.417 405.677C293.417 376.641 282.089 349.318 261.562 328.792C241.036 308.266 213.714 296.938 184.677 296.938Z" fill="white"/>
</g>
</mask>
<g mask="url(#mask1_2_45)">
<g id="Group_2">
<path id="Vector_3" d="M69 290H300.354V521.354H69V290Z" fill="white"/>
</g>
</g>
</g>
</g>
</g>
</g>
<g id="Group_3">
<g id="Group_4">
<g id="Group_5">
<path id="Vector_4" d="M304.882 496.531C299.465 497.948 294.658 498.656 290.465 498.656C286.283 498.656 282.58 498.396 279.361 497.885C276.137 497.37 272.695 496.37 269.028 494.885C265.361 493.396 261.913 491.688 258.695 489.76C255.471 487.828 252.247 485.448 249.028 482.615C243.096 477.849 237.715 472.698 232.882 467.156C228.049 461.615 218.736 451.214 204.945 435.948C191.163 420.688 182.017 410.542 177.507 405.51C173.007 400.484 169.533 397.844 167.09 397.594V395.656C174.559 395.656 179.554 395.5 182.069 395.177C184.58 394.844 187.257 394.26 190.09 393.427C192.924 392.594 195.304 391.469 197.236 390.052C204.83 385.151 208.632 377.031 208.632 365.698C208.632 356.297 206.533 348.76 202.34 343.094C198.158 337.427 192.267 334.526 184.674 334.385H160.715V449.573C160.715 452.797 161.903 455.63 164.278 458.073C166.663 460.521 169.596 461.74 173.069 461.74H175.403L175.59 463.677H133.278V461.74H135.778C138.997 461.74 141.83 460.583 144.278 458.26C146.736 455.943 148.028 453.109 148.153 449.76V342.51C148.028 339.167 146.767 336.302 144.382 333.927C141.991 331.542 139.122 330.344 135.778 330.344H133.278V328.406H185.444C196.778 328.406 205.887 331.594 212.778 337.969C219.679 344.344 223.132 352.781 223.132 363.281C223.132 373.781 219.971 382.802 213.653 390.344C207.346 397.875 199.616 401.635 190.465 401.635C190.465 401.635 190.403 401.635 190.278 401.635C194.653 406.276 199.611 411.693 205.153 417.885C227.445 442.484 241.741 457.938 248.049 464.24C254.366 470.557 259.945 475.745 264.778 479.802C269.611 483.87 273.892 486.87 277.632 488.802C285.226 492.927 292.762 494.99 300.236 494.99C301.778 494.99 303.325 494.854 304.882 494.594V496.531Z" fill="#39559E"/>
</g>
</g>
</g>
</g>
<defs>
<filter id="filter0_f_2_45" x="-500" y="-291" width="1375" height="1410" filterUnits="userSpaceOnUse" color-interpolation-filters="sRGB">
<feFlood flood-opacity="0" result="BackgroundImageFix"/>
<feBlend mode="normal" in="SourceGraphic" in2="BackgroundImageFix" result="shape"/>
<feGaussianBlur stdDeviation="250" result="effect1_foregroundBlur_2_45"/>
</filter>
<filter id="filter1_f_2_45" x="-200" y="128" width="775" height="555" filterUnits="userSpaceOnUse" color-interpolation-filters="sRGB">
<feFlood flood-opacity="0" result="BackgroundImageFix"/>
<feBlend mode="normal" in="SourceGraphic" in2="BackgroundImageFix" result="shape"/>
<feGaussianBlur stdDeviation="100" result="effect1_foregroundBlur_2_45"/>
</filter>
<clipPath id="clip0_2_45">
<rect width="375" height="812" fill="white"/>
</clipPath>
</defs>
</svg>
