<svg width="47" height="38" viewBox="0 0 47 38" fill="none" xmlns="http://www.w3.org/2000/svg">
<path fill-rule="evenodd" clip-rule="evenodd" d="M0.166525 19.6089C0.137765 19.5649 0.195286 19.6552 0.166525 19.6089C-0.0584963 19.2282 -0.0528329 18.7756 0.167537 18.3904C0.18368 18.3623 0.20013 18.333 0.216797 18.303C6.83489 6.35537 15.0419 0 23.5257 0C32.0007 0 40.2004 6.33826 46.8113 18.2619C46.9367 18.4881 47 18.7206 47 18.9989C47 19.2908 46.9264 19.5362 46.7945 19.7736C40.1854 31.6746 31.9929 38 23.5257 38C15.0203 38 6.79181 31.6144 0.166525 19.6089ZM5.31297 17.5526C4.76887 18.3891 4.76887 19.6084 5.31295 20.4451C10.9802 29.1578 17.3614 33.2498 23.5257 33.2498C29.6901 33.2498 36.0712 29.1578 41.7385 20.4451C42.2826 19.6084 42.2826 18.3891 41.7385 17.5526C36.0712 8.84003 29.6901 4.75029 23.5257 4.75029C17.3614 4.75029 10.9802 8.84003 5.31297 17.5526Z" fill="white"/>
<path fill-rule="evenodd" clip-rule="evenodd" d="M30.2434 22.541C30.6782 21.3405 30.9211 20.0045 30.9211 19.4033C30.9211 14.1923 27.5983 9.96722 23.4999 9.96722C19.4018 9.96722 16.079 14.1923 16.079 19.4033C16.079 24.6141 19.7895 28.0328 23.4999 28.0328C25.8734 28.0328 27.986 26.6184 29.3411 24.416C29.6963 23.8402 30.0007 23.2112 30.2434 22.541ZM23.4999 23.3149C24.4276 23.3149 25.2756 22.8817 25.9277 22.1653C26.7142 21.3015 27.0604 20.0229 27.0604 19.4033C27.0604 16.7978 25.5509 14.6851 23.4999 14.6851C21.4491 14.6851 19.7718 16.7942 19.7718 19.3997C19.7718 21.1989 21.4491 23.3149 23.4999 23.3149Z" fill="white"/>
</svg>
