<svg width="512" height="512" viewBox="0 0 512 512" fill="none" xmlns="http://www.w3.org/2000/svg">
<g clip-path="url(#clip0_148_27)">
<path fill-rule="evenodd" clip-rule="evenodd" d="M306.075 -330.215C280.622 -335.13 261.179 -339.809 256.908 -340.869L256.878 -341.192L256.849 -341.281C261.327 -342.222 283.303 -346.402 307.136 -344.224C350.147 -340.28 345.168 -398.199 310.907 -388.134C323.368 -420.773 275.172 -433.869 266.894 -391.107C261.945 -365.502 257.202 -346.019 256.201 -341.928C256.112 -341.957 256.024 -341.958 255.936 -341.958L255.818 -341.928C254.904 -346.372 250.692 -368.327 252.872 -392.166C256.819 -435.135 198.843 -430.161 208.918 -395.933C176.218 -408.382 163.139 -360.263 205.943 -351.993C231.543 -347.02 251.045 -342.311 255.17 -341.31C255.14 -341.222 255.111 -341.104 255.14 -341.016V-340.898C250.603 -339.956 228.656 -335.777 204.853 -337.955C161.872 -341.899 166.821 -283.979 201.082 -294.045C188.621 -261.406 236.816 -248.339 245.094 -291.102C249.484 -313.616 253.667 -331.421 255.287 -338.161C255.965 -324.888 254.61 -311.585 251.87 -298.636C248.954 -284.715 244.564 -271.118 239.969 -257.58C235.167 -244.13 230.748 -230.033 228.921 -215.495C226.948 -200.956 227.272 -185.976 230.129 -171.437V-171.408L230.159 -171.26C230.689 -168.994 232.957 -167.582 235.226 -168.111C237.523 -168.67 238.937 -170.937 238.407 -173.203C235.226 -186.741 234.342 -200.779 235.697 -214.7C236.345 -221.675 237.523 -228.621 239.144 -235.478C240.734 -242.365 242.826 -249.104 244.888 -256.02C248.983 -269.794 252.872 -283.714 255.258 -297.988C257.202 -309.407 258.086 -321.032 257.556 -332.599C258.97 -323.181 260.678 -307.082 259.117 -290.013C255.17 -247.074 313.175 -252.018 303.1 -286.246C335.77 -273.796 348.88 -321.945 306.075 -330.215Z" fill="#030B0D"/>
<path d="M512 587H0V1099H512V587Z" fill="#030B0D"/>
<path fill-rule="evenodd" clip-rule="evenodd" d="M360.62 848.484C307.697 838.288 267.269 828.58 258.387 826.382L258.326 825.711L258.265 825.528C267.575 823.574 313.271 814.904 362.825 819.422C452.256 827.603 441.904 707.449 370.666 728.33C396.576 660.621 296.365 633.452 279.152 722.163C268.862 775.28 259 815.698 256.917 824.185C256.733 824.123 256.55 824.123 256.366 824.123L256.121 824.185C254.222 814.965 245.463 769.419 249.995 719.965C258.204 630.827 137.656 641.145 158.605 712.15C90.6128 686.325 63.4161 786.148 152.418 803.304C205.648 813.622 246.198 823.391 254.773 825.466C254.712 825.65 254.651 825.894 254.712 826.077V826.321C245.279 828.275 199.645 836.945 150.152 832.427C60.7822 824.245 71.0729 944.399 142.311 923.519C116.401 991.228 216.612 1018.34 233.824 929.624C242.951 882.918 251.649 845.981 255.018 831.999C256.427 859.535 253.609 887.131 247.913 913.995C241.849 942.873 232.722 971.08 223.166 999.165C213.182 1027.07 203.994 1056.31 200.196 1086.47C196.092 1116.63 196.766 1147.71 202.707 1177.87V1177.93L202.769 1178.24C203.871 1182.94 208.588 1185.87 213.304 1184.77C218.082 1183.61 221.022 1178.91 219.92 1174.21C213.304 1146.12 211.467 1117 214.284 1088.12C215.632 1073.65 218.082 1059.24 221.451 1045.02C224.759 1030.73 229.108 1016.75 233.396 1002.4C241.91 973.827 249.995 944.949 254.957 915.338C259 891.649 260.837 867.533 259.735 843.539C262.675 863.076 266.228 896.472 262.981 931.883C254.773 1020.96 375.382 1010.7 354.433 939.698C422.364 965.524 449.622 865.64 360.62 848.484Z" fill="#030B0D"/>
<path d="M512 -27H0V485H512V-27Z" fill="#030B0D"/>
</g>
<defs>
<clipPath id="clip0_148_27">
<rect width="512" height="512" fill="white"/>
</clipPath>
</defs>
</svg>
